<svg id="Capa_1" enable-background="new 0 0 512 512" height="512" viewBox="0 0 512 512" width="512" xmlns="http://www.w3.org/2000/svg"><g><g><path d="m318.578 157.113v20.505c0 8.054-3.065 15.805-8.574 21.681l-20.033 21.369 48.052 25.773 48.052-25.773-20.033-21.369c-5.508-5.876-8.573-13.627-8.573-21.681v-20.505l-21.629-20.113z" fill="#74a4b7"/></g><g><path d="m71.216 169.753h-33.378v-46.507c0-8.947 7.253-16.2 16.2-16.2h.978c8.947 0 16.2 7.253 16.2 16.2z" fill="#0ed2b3"/></g><g><path d="m82.724 223.652h-39.704l-4.9-55.332c0-1.105 4.347-11.721 5.452-11.721h37.152c1.105 0 2 .895 2 2z" fill="#eef5f6"/></g><g><path d="m45.08 156.599h-16.688c-1.138 0-2.06.923-2.06 2.06v64.993h16.688v-64.992c0-1.138.923-2.061 2.06-2.061z" fill="#deecf1"/></g><g><path d="m463.476 226.732h-43.125v-24.592c0-5.523 4.477-10 10-10h23.125c5.523 0 10 4.477 10 10z" fill="#deecf1"/></g><g><path d="m445.636 389.305h-355.742l-43.546-147.155h414.287z" fill="#ecbba3"/></g><g><path d="m46.348 242.15h43.546v147.155h-43.546z" fill="#e8ad8c"/></g><g><path d="m216.617 423.297-12.115-1.726-72.518 81.863c-2.944 3.324-.585 8.566 3.856 8.566h25.486c1.488 0 2.904-.644 3.882-1.765l51.409-58.942z" fill="#a8d3d8"/></g><g><path d="m219.853 423.297 12.115-1.726 72.518 81.863c2.944 3.324.585 8.566-3.856 8.566h-25.486c-1.488 0-2.904-.644-3.882-1.765l-51.409-58.942z" fill="#a8d3d8"/></g><g><path d="m333.43 136.28h63.491l44.994-12.545v-113.735c0-5.523-4.477-10-10-10h-169.635c-5.523 0-13.44 4.477-13.44 10l-8.241 76.84h61.521z" fill="#c3ddff"/></g><g><path d="m303.8 123.735v33.378h127.812c5.69 0 10.302-4.612 10.302-10.302v-23.076z" fill="#89b4c9"/></g><path d="m303.08 123.735v33.378l24.12 19.847 19.423-19.847v-33.378l-21.772-31.375z" fill="#74a4b7"/><path d="m318.578 177.618c0 8.054-3.065 15.805-8.574 21.681l-20.033 21.369 56.652 24.332v-87.887h-28.045z" fill="#5b94a5"/><g><path d="m279.661 41.228h-22.533v-30.926c0-5.69 4.612-10.302 10.302-10.302h-22.994c-5.69 0-10.302 4.612-10.302 10.302v77.738h69.666v35.695h42.823v-15.545c0-36.923-30.039-66.962-66.962-66.962z" fill="#a4ccff"/></g><g><path d="m61.364 512h-30.033c-2.761 0-5-2.239-5-5v-264.85h40.033v264.85c0 2.761-2.239 5-5 5z" fill="#dc8758"/></g><g><path d="m480.669 512h-30.033c-2.761 0-5-2.239-5-5v-264.85h40.033v264.85c0 2.761-2.239 5-5 5z" fill="#dc8758"/></g><g fill="#ac5e2e"><path d="m139.28 220.318h-104.58c-5.69 0-10.44 4.612-10.44 10.302v23.062c0 5.69 4.57 10.302 10.26 10.302h104.76z"/><path d="m501.698 220.318h-198.258l17.428 43.665h180.83c5.69 0 10.302-4.612 10.302-10.302v-23.061c0-5.69-4.612-10.302-10.302-10.302z"/></g><g><path d="m28.68 253.681v-23.061c0-5.69 4.612-10.302 10.302-10.302h-28.68c-5.69 0-10.302 4.612-10.302 10.302v23.062c0 5.689 4.612 10.302 10.302 10.302h28.68c-5.689-.001-10.302-4.613-10.302-10.303z" fill="#9e5528"/></g><g><g><path d="m300.868 305.681h-150.188c-11.046 0-21.84-8.954-21.84-20l-1.44-178.699c0-22.091 18.597-40 40.689-40h112.78c22.091 0 40 17.909 40 40v178.699c-.001 11.046-8.955 20-20.001 20z" fill="#ff8086"/></g></g><g><path d="m136.617 285.078v-176.888c0-22.758 18.449-41.207 41.207-41.207h-21.016c-22.758 0-41.207 18.449-41.207 41.207v176.888c0 11.379 9.225 20.604 20.604 20.604h21.016c-11.38-.001-20.604-9.225-20.604-20.604z" fill="#f46c7a"/></g><g><path d="m227.086 512h-17.702c-5.523 0-10-4.477-10-10v-239.723c0-5.523 4.477-10 10-10h17.702c5.523 0 10 4.477 10 10v239.723c0 5.523-4.477 10-10 10z" fill="#deecf1"/></g><g><g><path d="m320.868 406.062v-35.3c0-1.481-.638-2.891-1.751-3.869l-12.53-11.012c-3.76-3.305-8.595-5.127-13.601-5.127h-131.986c-5.006 0-13.159 1.823-16.919 5.127l-12.53 11.012c-1.113.978-1.751 2.388-1.751 3.869l-1.68 35.3c0 2.845 9.703 5.151 12.548 5.151h175.049c2.845 0 5.151-2.306 5.151-5.151z" fill="#ff8086"/></g></g><g><path d="m137.853 406.062v-35.3c0-1.482.638-2.891 1.751-3.869l12.53-11.012c3.76-3.305 8.595-5.127 13.601-5.127h-22.252c-5.006 0-9.841 1.823-13.601 5.127l-12.53 11.012c-1.113.978-1.751 2.388-1.751 3.869v35.3c0 2.845 2.306 5.151 5.151 5.151h22.252c-2.845 0-5.151-2.306-5.151-5.151z" fill="#f46c7a"/></g></g></svg>